<svg xmlns="http://www.w3.org/2000/svg" viewBox="0 0 900 220" role="img" aria-label="Kami Sama">
  <defs>
    <linearGradient id="silver" x1="0" y1="0" x2="0" y2="1"><stop offset="0" stop-color="#ffffff"/><stop offset="0.55" stop-color="#e6e6e6"/><stop offset="1" stop-color="#b9b9b9"/></linearGradient>
    <linearGradient id="red" x1="0" y1="0" x2="0" y2="1"><stop offset="0" stop-color="#ff1a1a"/><stop offset="1" stop-color="#b80000"/></linearGradient>
    <linearGradient id="slash" x1="0" y1="0" x2="1" y2="0"><stop offset="0" stop-color="#d40000" stop-opacity="0"/><stop offset="0.5" stop-color="#ff3b3b"/><stop offset="1" stop-color="#d40000" stop-opacity="0"/></linearGradient>
  </defs>
  <rect width="900" height="220" fill="#000"/>
  <g fill="url(#silver)"><path transform="translate(28 176) scale(0.094)" d="M1112 0 606 -647 432 -514V0H137V-1409H432V-770L1067 -1409H1411L809 -813L1460 0Z"/></g>
  <g fill="url(#red)"><path transform="translate(150 178) scale(0.078)" d="M564 -842Q743 -719 879 -588L785 -453Q684 -579 564 -686V143H419V-660Q287 -507 147 -392L63 -523Q412 -786 634 -1215H124V-1348H397V-1700H542V-1348H734L812 -1278Q714 -1049 564 -844ZM1323 -1358V-1700H1464V-1358H1880V-221H1745V-371H1464V143H1323V-371H1046V-203H913V-1358ZM1046 -1235V-934H1327V-1235ZM1046 -815V-494H1327V-815ZM1745 -494V-815H1462V-494ZM1745 -934V-1235H1462V-934Z"/></g>
  <path d="M40 200 L330 170 L332 178 L40 208 Z" fill="url(#slash)"/>
  <text x="380" y="118" font-family="Inter, 'Segoe UI', Arial, sans-serif" font-size="86" font-weight="700" letter-spacing="-2" fill="#fff">Kami Sama</text>
  <text x="383" y="170" font-family="Inter, 'Segoe UI', Arial, sans-serif" font-size="28" font-weight="600" letter-spacing="7" fill="#e02020">KAMI GROUPE</text>
</svg>